<svg xmlns="http://www.w3.org/2000/svg" viewBox="0 0 500 500"><g id="freepik--question-marks--inject-2"><path d="M210.43,70q7-6.23,18.13-8.16t23.53,2.45q12.36,4.38,22.61,15.82,9.53,10.64,12.88,22.29a40.89,40.89,0,0,1,.59,22.13A35.1,35.1,0,0,1,277.47,142a30.35,30.35,0,0,1-13.19,7.25,44.61,44.61,0,0,1-13.49,1.24q-6.53-.42-22.66-2.23a71.63,71.63,0,0,0-7.58-.42,21.53,21.53,0,0,0-5.15.59,20.45,20.45,0,0,0-3.88,1.42c-1.2.59-3.23,1.68-6.11,3.29q-8.88,5.43-15.44-1.9a12,12,0,0,1-3.25-8.65q.17-4.83,5.08-9.23a34.85,34.85,0,0,1,24.83-9.68A156.27,156.27,0,0,1,232.34,125c5.54.67,9.63,1.09,12.27,1.23a28.06,28.06,0,0,0,7.81-.65,15,15,0,0,0,6.85-3.55,17.42,17.42,0,0,0,6-13.23q.12-8-6-14.87-7.23-8.07-14.71-8.23T226.75,90q-10.51,4.93-16.75-2a12.47,12.47,0,0,1-3.31-9.52A12,12,0,0,1,210.43,70ZM162.09,177.69A15.48,15.48,0,0,1,158,167.28q-.09-5.92,5.11-10.59A14.05,14.05,0,0,1,173.78,153a14.63,14.63,0,0,1,10.24,5.1,14.44,14.44,0,0,1-1.15,20.71q-5.13,4.59-11,3.92A15,15,0,0,1,162.09,177.69Z" style="fill:#F1B238"></path><g style="opacity:0.5"><path d="M299.85,137.05a19,19,0,0,1,6.71-8.26,24.86,24.86,0,0,1,11.86-4.48,29.6,29.6,0,0,1,14.63,2.14A30.76,30.76,0,0,1,344.57,134a21.94,21.94,0,0,1,5.6,10.45,18.85,18.85,0,0,1-.9,11,16.23,16.23,0,0,1-4.58,6.64,23.89,23.89,0,0,1-6.16,3.84q-3.22,1.37-11.39,4.38a35,35,0,0,0-3.73,1.62,11.22,11.22,0,0,0-2.32,1.52,10.43,10.43,0,0,0-1.52,1.61c-.43.57-1.14,1.58-2.13,3q-3,4.74-7.85,2.8a6.45,6.45,0,0,1-3.64-3.36,7,7,0,0,1,.22-5.64,18.68,18.68,0,0,1,9.56-10.6,84.35,84.35,0,0,1,7.83-3.18c2.81-1,4.87-1.79,6.17-2.35a15.08,15.08,0,0,0,3.58-2.19,8.09,8.09,0,0,0,2.43-3.35,9.3,9.3,0,0,0-.31-7.77A11.45,11.45,0,0,0,329,136.8q-5.4-2.13-9-.41a23.22,23.22,0,0,0-7.48,6.32q-3.86,4.89-8.52,3a6.71,6.71,0,0,1-3.87-3.77A6.34,6.34,0,0,1,299.85,137.05Zm2.73,63.2a8.31,8.31,0,0,1-4.46-4A7.32,7.32,0,0,1,298,190a7.49,7.49,0,0,1,4.21-4.35,7.81,7.81,0,0,1,6.13,0,7.74,7.74,0,0,1,4.43,10.19,7.35,7.35,0,0,1-4.34,4.52A8,8,0,0,1,302.58,200.25Z" style="fill:#F1B238"></path></g><g style="opacity:0.1"><path d="M367.11,131.16a8.91,8.91,0,0,1-1.39-4.76,11.46,11.46,0,0,1,1.42-5.72,13.65,13.65,0,0,1,4.69-5,14.28,14.28,0,0,1,5.94-2.42,10.24,10.24,0,0,1,5.49.62,8.79,8.79,0,0,1,4,3.25,7.57,7.57,0,0,1,1.34,3.51,11.37,11.37,0,0,1-.16,3.37q-.33,1.61-1.34,5.52a18.44,18.44,0,0,0-.36,1.86,5.1,5.1,0,0,0,.18,2.3c.11.32.31.86.61,1.62a2.73,2.73,0,0,1-1,3.75,3,3,0,0,1-2.24.5,3.24,3.24,0,0,1-2.11-1.57,9.11,9.11,0,0,1-1.46-3.32,9,9,0,0,1-.07-3.14,37.52,37.52,0,0,1,.85-3.84c.36-1.35.6-2.34.73-3a7.52,7.52,0,0,0,.11-2,3.82,3.82,0,0,0-.65-1.82,4.34,4.34,0,0,0-3.06-1.93,5.3,5.3,0,0,0-3.88,1,5.22,5.22,0,0,0-2.54,3.34,10.84,10.84,0,0,0,.45,4.54c.57,1.85.2,3.2-1.09,4.07a3.13,3.13,0,0,1-2.46.49A3,3,0,0,1,367.11,131.16Zm24.95,15.66a3.91,3.91,0,0,1-2.71.65,3.39,3.39,0,0,1-2.44-1.63,3.5,3.5,0,0,1-.56-2.76,3.67,3.67,0,0,1,1.61-2.36,3.57,3.57,0,0,1,2.75-.57,3.52,3.52,0,0,1,2.33,1.57,3.45,3.45,0,0,1,.59,2.86A3.77,3.77,0,0,1,392.06,146.82Z" style="fill:#F1B238"></path></g></g></svg>